<svg width="303.55" height="54.25261551874456" viewBox="0 0 370 66.12903225806453" class="looka-1j8o68f"><defs id="SvgjsDefs4079"><linearGradient id="SvgjsLinearGradient4084"><stop id="SvgjsStop4085" stop-color="#b98947" offset="0"></stop><stop id="SvgjsStop4086" stop-color="#faf0a1" offset="1"></stop></linearGradient><linearGradient id="SvgjsLinearGradient4087"><stop id="SvgjsStop4088" stop-color="#b98947" offset="0"></stop><stop id="SvgjsStop4089" stop-color="#faf0a1" offset="1"></stop></linearGradient></defs><g id="SvgjsG4080" featurekey="e7LhAk-0" transform="matrix(0.32258064516129037,0,0,0.32258064516129037,0,0)" fill="url(#SvgjsLinearGradient4084)"><defs xmlns="http://www.w3.org/2000/svg"></defs><g xmlns="http://www.w3.org/2000/svg"><path class="fil0" d="M97 67l20 0c13,0 13,19 0,19l-20 0c-12,0 -12,-19 0,-19zm-92 -53c11,10 23,14 32,12 10,-1 15,-8 14,-19 1,11 9,15 18,15 10,-1 21,-8 29,-22 -5,11 -8,19 -9,24 -1,6 -1,10 -2,13 -1,-2 -4,-5 -5,-9 0,0 0,0 0,0 -8,3 -19,4 -28,-2 -6,8 -16,10 -26,8 3,9 2,19 -4,25 7,9 5,17 2,26 14,2 14,5 19,15 2,0 8,-1 11,-1 -5,5 -6,3 -12,21 3,-12 -3,-21 -11,-25 -8,-4 -20,-4 -33,1 13,-5 20,-15 19,-23 0,-9 -6,-16 -19,-18 13,2 19,-3 20,-11 1,-9 -4,-20 -15,-30zm205 134c-6,0 -11,5 -11,11 0,6 5,11 11,11 7,0 12,-5 12,-11 0,-6 -5,-11 -12,-11zm-36 -77c18,0 32,14 32,32 0,17 -14,31 -32,31 -17,0 -31,-14 -31,-31 0,-18 14,-32 31,-32zm-79 -30l-1 0c-18,0 -32,15 -32,33l0 98c0,18 14,33 32,33l183 0c18,0 33,-15 33,-33l0 -98c0,-18 -15,-33 -33,-33l-6 0c-3,-5 -8,-9 -15,-9l-19 0c-6,0 -12,4 -15,9l-25 0 -6 -15c-2,-6 -8,-12 -15,-12 -20,0 -40,0 -60,0 -8,0 -13,6 -16,12l-5 15zm-1 13l9 0 9 -23c1,-2 2,-4 4,-4 20,0 40,0 60,0 2,0 3,2 3,4l9 23 46 0 0 -6c0,-2 1,-4 3,-4l19 0c2,0 4,2 4,4l0 6 17 0c11,0 20,9 20,20l0 98c0,11 -9,20 -20,20l-183 0c-11,0 -20,-9 -20,-20l0 -98c0,-11 9,-20 20,-20zm92 8c33,0 60,27 60,61 0,33 -27,60 -60,60 -34,0 -61,-27 -61,-60 0,-34 27,-61 61,-61z" style="fill: url(#SvgjsLinearGradient4084);"></path></g></g><g id="SvgjsG4081" featurekey="Qg0WB5-0" transform="matrix(2.163565641748313,0,0,2.163565641748313,116.34357523123074,7.38424743480994)" fill="url(#SvgjsLinearGradient4087)"><path d="M1.69 5.609999999999999 q0 -0.21 0.115 -0.33 t0.275 -0.13 l9.57 0 q0.23 0 0.345 0.13 t0.115 0.35 l0 2.48 q0 0.17 -0.12 0.325 t-0.35 0.155 l-6.08 0 l0 3.09 l4.49 0 q0.19 0 0.32 0.105 t0.13 0.335 l0 2.39 q0 0.17 -0.115 0.325 t-0.315 0.155 l-4.51 0 l0 4.58 q0 0.43 -0.46 0.43 l-3.05 0 q-0.36 -0.05 -0.36 -0.42 l0 -13.97 z M14.17 4.289999999999999 q0 -0.32 0.16 -0.54 t0.55 -0.22 l2.45 0 q0.1 0 0.21 0.055 t0.205 0.155 t0.16 0.24 t0.065 0.31 l0 14.94 q0 0.38 -0.215 0.575 t-0.555 0.195 l-2.32 0 q-0.39 0 -0.55 -0.195 t-0.16 -0.575 l0 -14.94 z M33.44 19.26 q0 0.17 -0.06 0.325 t-0.2 0.245 q-0.11 0.11 -0.26 0.14 t-0.26 0.03 l-1.97 0 q-0.21 0 -0.34 -0.055 t-0.21 -0.155 t-0.135 -0.245 t-0.115 -0.315 l-0.29 -0.75 q-0.27 0.27 -0.59 0.575 t-0.705 0.565 t-0.835 0.435 t-0.96 0.175 q-0.91 0 -1.745 -0.23 t-1.56 -0.655 t-1.315 -1.02 t-1.015 -1.325 t-0.655 -1.575 t-0.23 -1.765 q0 -1.39 0.51 -2.585 t1.39 -2.08 t2.07 -1.39 t2.55 -0.505 q0.62 0 1.14 0.185 t0.945 0.485 t0.77 0.68 t0.615 0.77 l0.39 -1.21 q0.1 -0.25 0.165 -0.405 t0.14 -0.23 t0.185 -0.1 t0.31 -0.025 l1.49 0 q0.11 0 0.26 0.03 t0.26 0.14 q0.14 0.11 0.2 0.25 t0.06 0.32 l0 11.27 z M23.590000000000003 13.66 q0 0.66 0.205 1.235 t0.585 0.995 t0.915 0.665 t1.185 0.245 q0.67 0 1.245 -0.245 t1 -0.665 t0.665 -0.995 t0.24 -1.235 q0 -0.64 -0.24 -1.22 t-0.665 -1.02 t-1 -0.695 t-1.245 -0.255 q-0.65 0 -1.185 0.255 t-0.915 0.695 t-0.585 1.02 t-0.205 1.22 z M37.74 16.05 q0.27 0.27 0.585 0.455 t0.605 0.3 t0.51 0.165 t0.3 0.05 q0.19 0 0.485 -0.015 t0.565 -0.09 t0.465 -0.245 t0.195 -0.48 q0 -0.28 -0.11 -0.445 t-0.32 -0.28 t-0.515 -0.205 t-0.685 -0.21 q-1.2 -0.32 -1.98 -0.77 t-1.235 -1.005 t-0.635 -1.195 t-0.18 -1.35 q0 -0.83 0.33 -1.51 t0.94 -1.165 t1.46 -0.75 t1.89 -0.265 q0.63 0 1.18 0.105 t1.05 0.33 t0.975 0.58 t0.945 0.845 q0.17 0.2 0.175 0.375 t-0.225 0.375 q-0.39 0.32 -0.745 0.63 t-0.735 0.69 q-0.12 0.1 -0.24 0.125 t-0.23 -0.005 t-0.21 -0.1 t-0.18 -0.17 q-0.35 -0.39 -0.8 -0.525 t-0.84 -0.135 q-0.49 0 -0.78 0.17 t-0.27 0.52 q0.02 0.26 0.195 0.405 t0.43 0.235 t0.54 0.145 t0.525 0.125 q0.9 0.29 1.65 0.63 t1.3 0.835 t0.855 1.185 t0.305 1.68 t-0.395 1.77 t-1.085 1.31 t-1.635 0.81 t-2.035 0.28 q-0.62 0 -1.26 -0.11 t-1.24 -0.355 t-1.14 -0.63 t-0.96 -0.935 q-0.11 -0.14 -0.165 -0.295 t-0.05 -0.305 t0.06 -0.275 t0.175 -0.215 l1.29 -1.29 q0.24 -0.2 0.425 -0.14 t0.475 0.34 z M51.26 8.63 q0.19 -0.28 0.46 -0.555 t0.635 -0.49 t0.83 -0.35 t1.055 -0.135 q1.14 0 2.035 0.44 t1.52 1.2 t0.95 1.775 t0.325 2.165 l0 6.55 q0 0.38 -0.165 0.575 t-0.525 0.195 l-2.31 0 q-0.43 0 -0.59 -0.145 t-0.16 -0.565 l0 -6.61 q0 -0.43 -0.165 -0.8 t-0.445 -0.645 t-0.655 -0.43 t-0.795 -0.155 q-0.36 0 -0.705 0.145 t-0.62 0.41 t-0.46 0.635 t-0.215 0.82 l0 6.6 q0 0.17 -0.065 0.34 t-0.195 0.26 q-0.13 0.08 -0.245 0.11 t-0.265 0.03 l-2.26 0 q-0.43 0 -0.62 -0.21 t-0.19 -0.56 l0 -8.14 l0 -0.07 l0 -2.98 l0 -0.05 l0 -3.71 q0 -0.34 0.19 -0.55 t0.62 -0.21 l2.26 0 q0.23 0 0.51 0.16 q0.13 0.09 0.195 0.26 t0.065 0.32 l0 4.37 z M65.02 19.23 q-0.09 0.19 -0.15 0.335 t-0.135 0.24 t-0.185 0.145 t-0.3 0.05 l-1.98 0 q-0.8 0 -0.8 -0.77 l0 -14.94 q0 -0.17 0.065 -0.31 t0.17 -0.24 t0.24 -0.155 t0.265 -0.055 l2.27 0 q0.38 0 0.6 0.22 t0.22 0.54 l0 4.56 q0.28 -0.3 0.6 -0.61 t0.695 -0.565 t0.825 -0.415 t1 -0.16 q1.36 0 2.505 0.505 t1.97 1.39 t1.29 2.08 t0.465 2.585 q0 1.38 -0.465 2.58 t-1.29 2.085 t-1.97 1.395 t-2.505 0.51 q-0.51 0 -0.96 -0.175 t-0.84 -0.445 t-0.72 -0.58 t-0.6 -0.58 z M71.05 13.66 q0 -0.64 -0.205 -1.22 t-0.585 -1.02 t-0.91 -0.695 t-1.19 -0.255 t-1.235 0.255 t-0.995 0.695 t-0.665 1.02 t-0.245 1.22 l0 0.14 q0.03 0.63 0.285 1.18 t0.675 0.955 t0.98 0.635 t1.2 0.23 q0.66 0 1.19 -0.245 t0.91 -0.665 t0.585 -0.995 t0.205 -1.235 z M89.74 19.26 q0 0.17 -0.06 0.325 t-0.2 0.245 q-0.11 0.11 -0.26 0.14 t-0.26 0.03 l-1.97 0 q-0.21 0 -0.34 -0.055 t-0.21 -0.155 t-0.135 -0.245 t-0.115 -0.315 l-0.29 -0.75 q-0.27 0.27 -0.59 0.575 t-0.705 0.565 t-0.835 0.435 t-0.96 0.175 q-0.91 0 -1.745 -0.23 t-1.56 -0.655 t-1.315 -1.02 t-1.015 -1.325 t-0.655 -1.575 t-0.23 -1.765 q0 -1.39 0.51 -2.585 t1.39 -2.08 t2.07 -1.39 t2.55 -0.505 q0.62 0 1.14 0.185 t0.945 0.485 t0.77 0.68 t0.615 0.77 l0.39 -1.21 q0.1 -0.25 0.165 -0.405 t0.14 -0.23 t0.185 -0.1 t0.31 -0.025 l1.49 0 q0.11 0 0.26 0.03 t0.26 0.14 q0.14 0.11 0.2 0.25 t0.06 0.32 l0 11.27 z M79.89 13.66 q0 0.66 0.205 1.235 t0.585 0.995 t0.915 0.665 t1.185 0.245 q0.67 0 1.245 -0.245 t1 -0.665 t0.665 -0.995 t0.24 -1.235 q0 -0.64 -0.24 -1.22 t-0.665 -1.02 t-1 -0.695 t-1.245 -0.255 q-0.65 0 -1.185 0.255 t-0.915 0.695 t-0.585 1.02 t-0.205 1.22 z M100.27 16.09 q0.14 -0.1 0.265 -0.125 t0.195 -0.025 q0.17 0 0.31 0.07 t0.29 0.3 l1.12 1.69 q0.05 0.08 0.095 0.18 t0.045 0.16 q0 0.23 -0.145 0.375 t-0.315 0.255 q-0.82 0.57 -1.795 0.915 t-2.065 0.345 q-0.9 0 -1.735 -0.23 t-1.555 -0.655 t-1.32 -1.02 t-1.02 -1.325 t-0.655 -1.575 t-0.235 -1.765 t0.235 -1.77 t0.655 -1.575 t1.02 -1.32 t1.32 -1.015 t1.555 -0.65 t1.735 -0.23 q1.09 0 2.015 0.29 t1.735 0.86 l-0.03 -0.03 q0.22 0.13 0.35 0.305 t0.13 0.435 q0 0.18 -0.12 0.37 l-0.89 1.51 q-0.28 0.49 -0.68 0.49 q-0.09 0 -0.22 -0.045 t-0.29 -0.155 q-0.44 -0.29 -0.945 -0.475 t-1.075 -0.185 q-0.63 0 -1.16 0.255 t-0.905 0.695 t-0.585 1.02 t-0.21 1.22 q0 0.66 0.21 1.235 t0.585 0.995 t0.905 0.665 t1.16 0.245 q0.57 0 1.07 -0.2 t0.95 -0.51 z M104.49 4.289999999999999 q0 -0.17 0.01 -0.31 t0.085 -0.24 t0.235 -0.155 t0.45 -0.055 l2.39 0 q0.19 0 0.315 0.065 t0.2 0.165 t0.1 0.215 t0.025 0.215 l0 7.4 l3.6 -4 q0.26 -0.29 0.62 -0.29 l3.07 0 q0.55 0 0.55 0.43 q0 0.11 -0.035 0.18 t-0.145 0.2 l-4.11 4.34 l5.17 6.64 l-0.02 0 q0.13 0.13 0.185 0.265 t0.055 0.245 q0 0.23 -0.125 0.315 t-0.375 0.085 l-3.38 0 q-0.17 0 -0.32 -0.13 t-0.33 -0.39 l-3.27 -4.63 l-1.11 1.15 l0 3.23 q0 0.08 -0.025 0.21 t-0.1 0.255 t-0.205 0.215 t-0.34 0.09 l-2.51 0 q-0.18 0 -0.31 -0.095 t-0.205 -0.215 t-0.11 -0.225 t-0.035 -0.125 l0 -15.05 z"></path></g></svg>