<svg xmlns="http://www.w3.org/2000/svg" width="80" height="54.25261551874456" viewBox="0 0 100 66.12903225806453" class="looka-1j8o68f"><defs id="SvgjsDefs4079"><linearGradient id="SvgjsLinearGradient4084"><stop id="SvgjsStop4085" stop-color="#000000ff" offset="0"></stop><stop id="SvgjsStop4086" stop-color="#00000077" offset="1"></stop></linearGradient><linearGradient id="SvgjsLinearGradient4087"><stop id="SvgjsStop4088" stop-color="#b98947" offset="0"></stop><stop id="SvgjsStop4089" stop-color="#faf0a1" offset="1"></stop></linearGradient></defs><g id="SvgjsG4080" featurekey="e7LhAk-0" transform="matrix(0.32258064516129037,0,0,0.32258064516129037,0,0)" fill="url(#SvgjsLinearGradient4084)"><defs xmlns="http://www.w3.org/2000/svg"></defs><g xmlns="http://www.w3.org/2000/svg"><path class="fil0" d="M97 67l20 0c13,0 13,19 0,19l-20 0c-12,0 -12,-19 0,-19zm-92 -53c11,10 23,14 32,12 10,-1 15,-8 14,-19 1,11 9,15 18,15 10,-1 21,-8 29,-22 -5,11 -8,19 -9,24 -1,6 -1,10 -2,13 -1,-2 -4,-5 -5,-9 0,0 0,0 0,0 -8,3 -19,4 -28,-2 -6,8 -16,10 -26,8 3,9 2,19 -4,25 7,9 5,17 2,26 14,2 14,5 19,15 2,0 8,-1 11,-1 -5,5 -6,3 -12,21 3,-12 -3,-21 -11,-25 -8,-4 -20,-4 -33,1 13,-5 20,-15 19,-23 0,-9 -6,-16 -19,-18 13,2 19,-3 20,-11 1,-9 -4,-20 -15,-30zm205 134c-6,0 -11,5 -11,11 0,6 5,11 11,11 7,0 12,-5 12,-11 0,-6 -5,-11 -12,-11zm-36 -77c18,0 32,14 32,32 0,17 -14,31 -32,31 -17,0 -31,-14 -31,-31 0,-18 14,-32 31,-32zm-79 -30l-1 0c-18,0 -32,15 -32,33l0 98c0,18 14,33 32,33l183 0c18,0 33,-15 33,-33l0 -98c0,-18 -15,-33 -33,-33l-6 0c-3,-5 -8,-9 -15,-9l-19 0c-6,0 -12,4 -15,9l-25 0 -6 -15c-2,-6 -8,-12 -15,-12 -20,0 -40,0 -60,0 -8,0 -13,6 -16,12l-5 15zm-1 13l9 0 9 -23c1,-2 2,-4 4,-4 20,0 40,0 60,0 2,0 3,2 3,4l9 23 46 0 0 -6c0,-2 1,-4 3,-4l19 0c2,0 4,2 4,4l0 6 17 0c11,0 20,9 20,20l0 98c0,11 -9,20 -20,20l-183 0c-11,0 -20,-9 -20,-20l0 -98c0,-11 9,-20 20,-20zm92 8c33,0 60,27 60,61 0,33 -27,60 -60,60 -34,0 -61,-27 -61,-60 0,-34 27,-61 61,-61z" style="fill: url(#SvgjsLinearGradient4084);"></path></g></g></svg>